HIERARCHY
ROOT Hips
{
	OFFSET 0.000000 97.167313 0.000000
	CHANNELS 6 Xposition Yposition Zposition Xrotation Yrotation Zrotation
	JOINT Spine
	{
		OFFSET 0.000000 13.784798 0.064400
		CHANNELS 3 Xrotation Yrotation Zrotation
		JOINT Spine1
		{
			OFFSET 0.000000 12.037903 0.404700
			CHANNELS 3 Xrotation Yrotation Zrotation
			JOINT Spine2
			{
				OFFSET 0.000000 17.795601 0.420200
				CHANNELS 3 Xrotation Yrotation Zrotation
				JOINT Neck
				{
					OFFSET 0.000000 39.131302 11.954600
					CHANNELS 3 Xrotation Yrotation Zrotation
					JOINT Head
					{
						OFFSET 0.000000 14.456192 15.627699
						CHANNELS 3 Xrotation Yrotation Zrotation
						JOINT HeadTop_End
						{
							OFFSET 0.000000 15.703506 7.603401
							CHANNELS 3 Xrotation Yrotation Zrotation
							End Site
							{
								OFFSET 0.000000 17.447403 0.000000
							}
						}
					}
				}
				JOINT LeftShoulder
				{
					OFFSET 17.399500 24.608795 1.168800
					CHANNELS 3 Xrotation Yrotation Zrotation
					JOINT LeftArm
					{
						OFFSET 18.980635 5.765305 1.818600
						CHANNELS 3 Xrotation Yrotation Zrotation
						JOINT LeftForeArm
						{
							OFFSET 49.290169 0.000000 0.000000
							CHANNELS 3 Xrotation Yrotation Zrotation
							JOINT LeftHand
							{
								OFFSET 31.562012 0.000000 0.000000
								CHANNELS 3 Xrotation Yrotation Zrotation
								JOINT LeftHandThumb1
								{
									OFFSET 6.133995 -4.388519 7.076070
									CHANNELS 3 Xrotation Yrotation Zrotation
									JOINT LeftHandThumb2
									{
										OFFSET 6.037666 -3.485840 3.485847
										CHANNELS 3 Xrotation Yrotation Zrotation
										JOINT LeftHandThumb3
										{
											OFFSET 6.496506 -3.750763 3.750761
											CHANNELS 3 Xrotation Yrotation Zrotation
											JOINT LeftHandThumb4
											{
												OFFSET 5.616882 -3.242905 3.242910
												CHANNELS 3 Xrotation Yrotation Zrotation
												End Site
												{
													OFFSET -1.254608 7.132141 0.375429
												}
											}
										}
									}
								}
								JOINT LeftHandPinky1
								{
									OFFSET 18.920792 -0.453171 -11.426712
									CHANNELS 3 Xrotation Yrotation Zrotation
									JOINT LeftHandPinky2
									{
										OFFSET 4.919586 0.000000 0.000000
										CHANNELS 3 Xrotation Yrotation Zrotation
										JOINT LeftHandPinky3
										{
											OFFSET 5.233047 0.000000 0.000000
											CHANNELS 3 Xrotation Yrotation Zrotation
											JOINT LeftHandPinky4
											{
												OFFSET 5.571716 0.000000 0.000000
												CHANNELS 3 Xrotation Yrotation Zrotation
												End Site
												{
													OFFSET -3.459808 4.342407 -0.466164
												}
											}
										}
									}
								}
								JOINT LeftHandRing1
								{
									OFFSET 22.726120 -0.094986 -6.500475
									CHANNELS 3 Xrotation Yrotation Zrotation
									JOINT LeftHandRing2
									{
										OFFSET 6.408615 0.000000 0.000000
										CHANNELS 3 Xrotation Yrotation Zrotation
										JOINT LeftHandRing3
										{
											OFFSET 6.150223 0.000000 0.000000
											CHANNELS 3 Xrotation Yrotation Zrotation
											JOINT LeftHandRing4
											{
												OFFSET 6.145386 0.000000 0.000000
												CHANNELS 3 Xrotation Yrotation Zrotation
												End Site
												{
													OFFSET -3.671402 4.923981 -0.202372
												}
											}
										}
									}
								}
								JOINT LeftHandMiddle1
								{
									OFFSET 23.373947 0.000000 0.000001
									CHANNELS 3 Xrotation Yrotation Zrotation
									JOINT LeftHandMiddle2
									{
										OFFSET 6.996567 0.000000 0.000000
										CHANNELS 3 Xrotation Yrotation Zrotation
										JOINT LeftHandMiddle3
										{
											OFFSET 7.015945 0.000000 0.000000
											CHANNELS 3 Xrotation Yrotation Zrotation
											JOINT LeftHandMiddle4
											{
												OFFSET 7.721573 0.000000 0.000000
												CHANNELS 3 Xrotation Yrotation Zrotation
												End Site
												{
													OFFSET -4.651108 6.158463 0.251582
												}
											}
										}
									}
								}
								JOINT LeftHandIndex1
								{
									OFFSET 21.310577 -0.490082 6.209344
									CHANNELS 3 Xrotation Yrotation Zrotation
									JOINT LeftHandIndex2
									{
										OFFSET 7.536453 0.000000 0.000000
										CHANNELS 3 Xrotation Yrotation Zrotation
										JOINT LeftHandIndex3
										{
											OFFSET 7.512344 0.000000 0.000000
											CHANNELS 3 Xrotation Yrotation Zrotation
											JOINT LeftHandIndex4
											{
												OFFSET 10.212402 0.000000 0.000001
												CHANNELS 3 Xrotation Yrotation Zrotation
												End Site
												{
													OFFSET -5.180801 8.690506 1.388433
												}
											}
										}
									}
								}
							}
						}
					}
				}
				JOINT RightShoulder
				{
					OFFSET -17.399500 24.608795 1.168800
					CHANNELS 3 Xrotation Yrotation Zrotation
					JOINT RightArm
					{
						OFFSET -18.980635 5.765305 1.818600
						CHANNELS 3 Xrotation Yrotation Zrotation
						JOINT RightForeArm
						{
							OFFSET -49.290169 0.000000 0.000000
							CHANNELS 3 Xrotation Yrotation Zrotation
							JOINT RightHand
							{
								OFFSET -31.562012 0.000000 0.000000
								CHANNELS 3 Xrotation Yrotation Zrotation
								JOINT RightHandThumb1
								{
									OFFSET -6.133995 -4.388519 7.076070
									CHANNELS 3 Xrotation Yrotation Zrotation
									JOINT RightHandThumb2
									{
										OFFSET -6.037666 -3.485840 3.485847
										CHANNELS 3 Xrotation Yrotation Zrotation
										JOINT RightHandThumb3
										{
											OFFSET -6.496506 -3.750763 3.750761
											CHANNELS 3 Xrotation Yrotation Zrotation
											JOINT RightHandThumb4
											{
												OFFSET -5.616882 -3.242905 3.242910
												CHANNELS 3 Xrotation Yrotation Zrotation
												End Site
												{
													OFFSET 1.254608 7.132141 0.375429
												}
											}
										}
									}
								}
								JOINT RightHandIndex1
								{
									OFFSET -21.310577 -0.490082 6.209344
									CHANNELS 3 Xrotation Yrotation Zrotation
									JOINT RightHandIndex2
									{
										OFFSET -7.536453 0.000000 0.000000
										CHANNELS 3 Xrotation Yrotation Zrotation
										JOINT RightHandIndex3
										{
											OFFSET -7.512344 0.000000 0.000000
											CHANNELS 3 Xrotation Yrotation Zrotation
											JOINT RightHandIndex4
											{
												OFFSET -10.212402 0.000000 0.000001
												CHANNELS 3 Xrotation Yrotation Zrotation
												End Site
												{
													OFFSET 5.180801 8.690506 1.388433
												}
											}
										}
									}
								}
								JOINT RightHandMiddle1
								{
									OFFSET -23.373947 0.000000 0.000001
									CHANNELS 3 Xrotation Yrotation Zrotation
									JOINT RightHandMiddle2
									{
										OFFSET -6.996567 0.000000 0.000000
										CHANNELS 3 Xrotation Yrotation Zrotation
										JOINT RightHandMiddle3
										{
											OFFSET -7.015945 0.000000 0.000000
											CHANNELS 3 Xrotation Yrotation Zrotation
											JOINT RightHandMiddle4
											{
												OFFSET -7.721573 0.000000 0.000000
												CHANNELS 3 Xrotation Yrotation Zrotation
												End Site
												{
													OFFSET 4.651108 6.158463 0.251582
												}
											}
										}
									}
								}
								JOINT RightHandRing1
								{
									OFFSET -22.726120 -0.094986 -6.500475
									CHANNELS 3 Xrotation Yrotation Zrotation
									JOINT RightHandRing2
									{
										OFFSET -6.408615 0.000000 0.000000
										CHANNELS 3 Xrotation Yrotation Zrotation
										JOINT RightHandRing3
										{
											OFFSET -6.150223 0.000000 0.000000
											CHANNELS 3 Xrotation Yrotation Zrotation
											JOINT RightHandRing4
											{
												OFFSET -6.145386 0.000000 0.000000
												CHANNELS 3 Xrotation Yrotation Zrotation
												End Site
												{
													OFFSET 3.671402 4.923981 -0.202372
												}
											}
										}
									}
								}
								JOINT RightHandPinky1
								{
									OFFSET -18.920792 -0.453171 -11.426712
									CHANNELS 3 Xrotation Yrotation Zrotation
									JOINT RightHandPinky2
									{
										OFFSET -4.919586 0.000000 0.000000
										CHANNELS 3 Xrotation Yrotation Zrotation
										JOINT RightHandPinky3
										{
											OFFSET -5.233047 0.000000 0.000000
											CHANNELS 3 Xrotation Yrotation Zrotation
											JOINT RightHandPinky4
											{
												OFFSET -5.571716 0.000000 0.000000
												CHANNELS 3 Xrotation Yrotation Zrotation
												End Site
												{
													OFFSET 3.459808 4.342407 -0.466164
												}
											}
										}
									}
								}
							}
						}
					}
				}
			}
		}
	}
	JOINT LeftUpLeg
	{
		OFFSET 19.899099 -7.885101 -3.429500
		CHANNELS 3 Xrotation Yrotation Zrotation
		JOINT LeftLeg
		{
			OFFSET 1.745560 -36.997807 10.304700
			CHANNELS 3 Xrotation Yrotation Zrotation
			JOINT LeftFoot
			{
				OFFSET -1.745558 -29.803308 -13.615400
				CHANNELS 3 Xrotation Yrotation Zrotation
				JOINT LeftToeBase
				{
					OFFSET 1.181900 -18.539904 15.226099
					CHANNELS 3 Xrotation Yrotation Zrotation
					JOINT LeftToe_End
					{
						OFFSET -0.863701 1.402801 16.534700
						CHANNELS 3 Xrotation Yrotation Zrotation
						End Site
						{
							OFFSET 0.000000 16.616566 0.000000
						}
					}
				}
			}
		}
	}
	JOINT RightUpLeg
	{
		OFFSET -19.899099 -7.885101 -3.429500
		CHANNELS 3 Xrotation Yrotation Zrotation
		JOINT RightLeg
		{
			OFFSET -1.745560 -36.997807 10.304700
			CHANNELS 3 Xrotation Yrotation Zrotation
			JOINT RightFoot
			{
				OFFSET 1.745558 -29.803308 -13.615400
				CHANNELS 3 Xrotation Yrotation Zrotation
				JOINT RightToeBase
				{
					OFFSET -1.181900 -18.539904 15.226099
					CHANNELS 3 Xrotation Yrotation Zrotation
					JOINT RightToe_End
					{
						OFFSET 0.863701 1.402801 16.534700
						CHANNELS 3 Xrotation Yrotation Zrotation
						End Site
						{
							OFFSET 0.000000 16.616566 0.000000
						}
					}
				}
			}
		}
	}
}
MOTION
Frames: 4
Frame Time: 0.033333
1.713691 97.150024 1.925173 -3.823050 3.900936 -2.527106 5.988332 0.217514 2.676105 -3.550193 0.586461 0.346679 -3.529465 0.741176 0.341943 2.005120 -0.186654 1.450069 2.162759 0.933397 -0.591250 -0.000000 -0.000001 0.000000 3.221637 -7.337583 -2.389999 -2.384441 17.419166 -78.265901 0.076723 -11.893669 -2.055704 -1.171413 2.635597 1.093100 10.761918 -0.277850 15.893596 -0.883668 26.405428 -5.966669 -4.780003 4.325723 -1.691946 0.000001 0.000001 0.000001 -4.046278 12.925257 -17.157275 8.429807 2.584105 -31.030188 5.102738 2.548701 -14.266420 -0.000001 0.000003 -0.000007 -3.658441 10.850172 -6.840411 3.000319 3.455766 -29.220727 1.679576 2.524957 -15.350515 -0.000002 -0.000000 0.000002 -1.913006 4.428275 -9.348887 -0.028399 4.075750 -23.702054 -0.533000 0.887514 -11.496359 -0.000001 -0.000002 0.000009 1.181336 0.647674 -5.021475 -1.791609 1.906427 -16.720549 -1.617982 3.841080 -12.990163 -0.000001 0.000001 0.000003 3.340685 -0.134032 4.445788 4.390806 -6.186259 76.338163 -0.459224 16.016630 0.264774 -0.394472 -6.585857 -2.081653 15.796486 -2.798735 -17.234493 -2.091228 -31.110388 7.330394 -6.635381 -3.825873 2.611966 0.000001 0.000001 0.000001 2.363039 -3.638389 8.321817 -2.161704 -2.434403 18.520372 -1.909643 -4.839778 14.301574 -0.000000 -0.000002 0.000004 -1.985582 -5.670595 13.541168 0.247881 -5.066477 26.891201 -0.655332 -1.105375 11.615394 0.000000 0.000000 -0.000004 -4.984525 -10.101425 10.692379 4.038036 -4.036687 33.182463 2.113950 -3.136901 15.516474 0.000000 0.000001 -0.000003 -6.473225 -11.328735 23.223499 10.711940 -2.549909 34.777739 6.414955 -3.065639 15.234780 -0.000000 -0.000001 -0.000003 -12.194069 7.016341 12.312289 18.945413 -5.784046 -0.237018 24.002444 7.130942 -10.961168 -30.578979 -0.001560 -0.000039 -0.000000 0.000002 0.000000 -8.964342 -3.846756 7.295159 14.316844 5.914068 -0.188564 25.627903 -3.971507 -3.825076 -29.338224 0.019763 0.059876 -0.000000 0.000000 0.000000 
1.517342 97.036034 2.089918 -3.852679 3.752488 -2.338691 5.801483 0.152991 2.434688 -3.470922 0.567688 0.342246 -3.451199 0.719674 0.340662 2.226095 -0.142512 1.348569 2.024223 0.959388 -0.608830 -0.000000 -0.000000 0.000000 3.225302 -7.368178 -2.440798 -2.568889 17.446012 -78.024967 0.156426 -11.790398 -2.020898 -1.166102 2.635180 1.143670 10.760666 -0.274517 15.899238 -0.880245 26.417765 -5.963224 -4.775165 4.338253 -1.688008 -0.000002 0.000001 0.000001 -4.045544 12.919175 -17.173836 8.431110 2.584333 -31.044897 5.102963 2.548920 -14.279081 -0.000001 0.000003 -0.000007 -3.658588 10.850541 -6.857089 3.000263 3.456153 -29.237345 1.679660 2.525216 -15.364381 -0.000000 0.000000 0.000003 -1.912935 4.433227 -9.366920 -0.027910 4.075861 -23.719160 -0.533013 0.887783 -11.511185 -0.000001 -0.000001 0.000001 1.182608 0.660626 -5.035951 -1.791612 1.906742 -16.735999 -1.617468 3.841252 -13.005329 -0.000001 0.000001 0.000001 3.335259 -0.076112 4.461288 4.468178 -6.241434 76.331892 -0.575760 15.797326 0.315692 -0.401224 -6.516701 -2.128073 15.800485 -2.814879 -17.237336 -2.112416 -31.121047 7.335104 -6.655525 -3.801859 2.625882 0.000002 0.000000 0.000001 2.367185 -3.643118 8.338999 -2.161712 -2.434108 18.505656 -1.909241 -4.839915 14.313437 -0.000000 -0.000003 0.000003 -1.985682 -5.670251 13.520878 0.247331 -5.066382 26.873220 -0.655319 -1.105185 11.604342 0.000001 0.000001 -0.000006 -4.984224 -10.095757 10.661961 4.038077 -4.036200 33.162115 2.113793 -3.136316 15.483890 0.000000 0.000001 -0.000002 -6.482527 -11.307460 23.180771 10.723120 -2.548968 34.744855 6.420368 -3.065105 15.192402 -0.000000 -0.000002 0.000002 -11.996813 6.913592 12.258322 19.075769 -5.602117 -0.162512 23.800407 7.166088 -11.228333 -30.790544 0.033376 -0.187566 0.000000 0.000002 0.000000 -9.247274 -3.335270 7.344946 14.982124 5.561673 -0.325281 25.279334 -4.096271 -3.856209 -29.311538 -0.072197 0.223680 0.000000 0.000000 0.000000 
1.284679 96.955666 2.301554 -3.899679 3.718542 -2.148634 5.439600 0.097024 2.111113 -3.313482 0.548230 0.389868 -3.295867 0.699448 0.393102 2.589985 -0.094723 1.237448 1.889237 0.999599 -0.662320 0.000000 -0.000000 -0.000000 3.222625 -7.367788 -2.483003 -2.792041 17.414313 -77.832697 0.284902 -11.655907 -1.988847 -1.157859 2.649353 1.195453 10.755419 -0.262769 15.920990 -0.863548 26.448608 -5.966702 -4.762386 4.371333 -1.677609 0.000001 -0.000001 -0.000003 -4.055360 12.895987 -17.218005 8.436586 2.584864 -31.085420 5.103575 2.549539 -14.313468 -0.000000 0.000000 -0.000002 -3.658955 10.851474 -6.903296 3.000065 3.457267 -29.283463 1.679833 2.525901 -15.402353 -0.000000 0.000001 -0.000000 -1.912762 4.450968 -9.416464 -0.026509 4.076217 -23.766495 -0.533061 0.888525 -11.551760 -0.000000 -0.000000 0.000008 1.186073 0.695746 -5.075525 -1.791611 1.907561 -16.777882 -1.616103 3.841724 -13.046262 -0.000000 0.000000 -0.000001 3.327497 -0.051432 4.523849 4.593214 -6.341359 76.255107 -0.509141 15.580350 0.341881 -0.409722 -6.442296 -2.166445 15.805032 -2.858107 -17.247040 -2.176005 -31.150956 7.336179 -6.714534 -3.735855 2.654305 -0.000002 0.000003 0.000003 2.382113 -3.659603 8.384366 -2.172143 -2.433831 18.465384 -1.909515 -4.849759 14.343684 -0.000001 -0.000001 -0.000002 -1.995203 -5.666288 13.465101 0.245854 -5.066103 26.824378 -0.655267 -1.104620 11.573996 -0.000000 0.000001 -0.000004 -4.983300 -10.075817 10.580870 4.038221 -4.034868 33.107457 2.113050 -3.130099 15.396529 -0.000002 -0.000001 -0.000002 -6.507119 -11.250712 23.065841 10.752715 -2.544036 34.655676 6.440676 -3.063923 15.078563 -0.000002 -0.000001 0.000004 -11.749800 6.887690 12.293419 19.058985 -5.480055 -0.160824 23.701663 7.037541 -11.441509 -30.954486 0.009106 -0.227332 -0.000001 -0.000000 0.000000 -9.308744 -3.210037 7.381913 15.507041 5.394863 -0.384238 24.875358 -4.181662 -4.045661 -29.352390 -0.108745 0.288314 0.000000 -0.000000 0.000000 
1.021812 96.921310 2.553382 -3.940028 3.816069 -1.984560 4.873047 0.055811 1.806832 -3.077152 0.541909 0.443162 -3.061939 0.693565 0.452591 3.046745 -0.082455 1.164313 1.787436 1.024023 -0.742936 -0.000000 -0.000000 0.000000 3.217874 -7.380983 -2.449896 -3.027084 17.400344 -77.739506 0.377254 -11.559617 -1.923846 -1.148335 2.486814 1.114680 10.754288 -0.249388 15.959005 -0.847603 26.496145 -5.974274 -4.741043 4.418495 -1.669306 -0.000001 -0.000000 -0.000001 -4.070506 12.861826 -17.285194 8.444124 2.585685 -31.146390 5.104462 2.550444 -14.364525 0.000001 0.000001 -0.000005 -3.662962 10.852855 -6.973210 2.999745 3.458965 -29.353756 1.680127 2.526925 -15.459402 -0.000002 0.000000 0.000003 -1.912485 4.477021 -9.491630 -0.024374 4.076728 -23.838077 -0.533162 0.889616 -11.612339 0.000001 -0.000000 0.000004 1.191192 0.747596 -5.134564 -1.791607 1.908796 -16.839679 -1.615811 3.842172 -13.106397 -0.000001 0.000001 0.000002 3.317334 -0.133913 4.679495 4.705630 -6.469987 76.113326 -0.370264 15.300276 0.372566 -0.422655 -6.339584 -2.208251 15.811780 -2.919356 -17.260901 -2.268785 -31.194362 7.336285 -6.801425 -3.636929 2.696267 -0.000003 -0.000001 -0.000000 2.403584 -3.682722 8.448097 -2.187443 -2.429637 18.406206 -1.916633 -4.863110 14.385323 -0.000000 0.000000 0.000001 -2.008897 -5.657073 13.383110 0.241535 -5.065815 26.751932 -0.655219 -1.103803 11.528353 0.000000 0.000001 -0.000008 -4.988585 -10.046970 10.461840 4.042743 -4.026001 33.027516 2.120423 -3.115216 15.269866 -0.000001 -0.000000 -0.000003 -6.542062 -11.168922 22.897980 10.795253 -2.534354 34.524318 6.470049 -3.059077 14.911812 0.000001 -0.000001 -0.000001 -11.472196 6.876939 12.386916 18.900955 -5.367879 -0.166257 23.691836 6.780417 -11.633627 -31.030854 -0.036541 -0.188665 0.000000 -0.000000 0.000000 -9.121588 -3.580395 7.428783 15.804180 5.559257 -0.375575 24.448684 -4.172825 -4.415166 -29.446892 -0.031313 0.168066 0.000000 0.000000 0.000000 
